<?xml version="1.0" standalone="no"?>
<!DOCTYPE svg PUBLIC "-//W3C//DTD SVG 20010904//EN"
 "http://www.w3.org/TR/2001/REC-SVG-20010904/DTD/svg10.dtd">
<svg version="1.0" xmlns="http://www.w3.org/2000/svg"
 width="260.000000pt" height="260.000000pt" viewBox="0 0 260.000000 260.000000"
 preserveAspectRatio="xMidYMid meet">
<metadata>
Created by potrace 1.14, written by Peter Selinger 2001-2017
</metadata>
<g transform="translate(0.000000,260.000000) scale(0.100000,-0.100000)"
fill="#000000" stroke="none">
<path d="M2250 2312 c-8 -9 -14 -20 -13 -24 2 -4 -5 -5 -15 -2 -14 5 -13 3 3
-11 19 -16 19 -16 -10 -10 -25 5 -27 4 -12 -5 16 -11 16 -12 0 -34 -15 -20
-22 -22 -38 -13 -18 9 -19 9 -6 -6 8 -10 9 -17 3 -17 -6 0 -14 5 -17 10 -5 8
-11 7 -21 -1 -18 -15 -9 -30 14 -23 9 4 5 -2 -10 -13 -22 -15 -25 -22 -16 -37
7 -13 7 -17 0 -12 -6 3 -15 -2 -21 -11 -5 -10 -13 -14 -17 -10 -4 4 1 13 11
21 14 10 15 15 5 21 -8 5 -11 4 -7 -2 4 -6 0 -14 -9 -17 -12 -5 -15 -2 -10 11
5 15 4 15 -9 -1 -8 -11 -15 -24 -15 -29 0 -4 -5 -5 -12 -1 -7 5 -8 3 -3 -6 6
-10 4 -12 -9 -7 -10 4 -15 3 -11 -4 4 -5 16 -7 28 -4 16 5 18 4 8 -3 -7 -5
-11 -14 -7 -20 3 -6 1 -14 -5 -18 -7 -4 -9 -3 -5 4 3 6 1 14 -5 18 -8 5 -10
-1 -7 -17 4 -21 1 -25 -21 -24 -15 0 -39 -11 -56 -27 -25 -24 -28 -30 -15 -38
12 -7 12 -12 3 -21 -15 -15 -46 -21 -37 -8 3 5 10 7 15 4 5 -3 6 1 2 11 -5 14
-7 14 -15 1 -4 -9 -17 -14 -28 -12 -11 2 -18 0 -15 -6 4 -5 1 -9 -4 -9 -6 0
-10 -10 -8 -22 1 -17 -3 -23 -16 -22 -13 2 -15 -1 -7 -11 8 -10 6 -15 -9 -20
-12 -3 -21 -11 -21 -16 0 -6 -5 -7 -10 -4 -6 4 -7 11 -4 17 4 7 2 8 -4 4 -9
-5 -9 -13 -2 -27 7 -11 7 -19 1 -19 -5 0 -11 5 -13 12 -2 6 -9 8 -16 4 -6 -3
-9 -13 -6 -21 4 -8 11 -12 17 -8 6 4 7 1 3 -6 -5 -7 -14 -10 -21 -7 -9 3 -12
-4 -11 -24 2 -23 -1 -27 -11 -18 -7 5 -10 15 -7 20 4 5 -8 2 -25 -6 -17 -9
-31 -19 -31 -22 0 -2 9 0 19 6 25 13 41 13 18 -1 -9 -6 -15 -14 -12 -19 3 -5
1 -11 -5 -15 -6 -4 -7 -12 -3 -18 4 -7 -1 -6 -11 2 -15 13 -17 12 -12 -13 3
-14 1 -24 -4 -21 -5 3 -13 -3 -19 -12 -6 -11 -11 -13 -11 -5 0 7 -4 10 -10 7
-6 -4 -7 1 -4 12 5 15 4 16 -5 3 -6 -8 -11 -11 -11 -6 0 5 -6 3 -13 -3 -8 -6
-17 -7 -22 -3 -4 4 0 -5 9 -20 17 -27 17 -27 -4 -23 -13 2 -20 1 -16 -2 4 -4
-4 -13 -16 -20 l-23 -14 23 6 c13 4 22 2 22 -5 0 -6 5 -8 12 -4 6 4 8 3 5 -3
-3 -5 -20 -9 -37 -8 -22 1 -29 -2 -26 -11 3 -9 0 -11 -11 -7 -12 5 -14 3 -8
-7 6 -9 4 -11 -5 -5 -9 6 -10 2 -5 -16 7 -22 7 -23 -10 -9 -11 9 -16 10 -11 3
4 -7 2 -13 -3 -13 -6 0 -11 -5 -11 -11 0 -5 5 -7 12 -3 7 4 8 3 4 -5 -6 -8
-12 -9 -20 -2 -7 6 -16 7 -20 3 -8 -7 -12 -8 -43 -11 -13 -1 -9 -6 12 -16 17
-7 26 -14 20 -15 -5 -1 -20 -3 -32 -4 -30 -3 -38 -12 -18 -20 9 -3 13 -2 10 4
-3 5 1 7 9 4 12 -5 12 -8 -2 -25 -9 -10 -21 -19 -27 -19 -5 0 -3 5 5 10 12 7
10 9 -7 7 -20 -1 -21 -3 -8 -17 13 -14 12 -16 -6 -17 -10 -1 -17 2 -14 7 3 4
-2 11 -11 14 -11 4 -15 2 -11 -8 3 -8 0 -17 -7 -19 -9 -4 -12 3 -10 19 1 13
-2 22 -7 18 -5 -3 -7 -10 -3 -15 3 -6 -5 -7 -23 -4 -21 5 -24 4 -13 -4 12 -8
11 -10 -7 -8 -12 0 -20 3 -18 5 2 3 -4 12 -13 21 -10 9 -13 12 -6 8 7 -5 15
-2 20 5 4 7 4 10 -1 6 -4 -4 -14 -1 -21 7 -15 15 -19 29 -6 21 5 -3 9 2 9 10
0 10 -4 11 -11 4 -5 -5 -15 -10 -20 -10 -6 0 -5 5 2 12 7 7 12 16 12 21 0 5
-7 1 -16 -7 -12 -12 -20 -13 -35 -6 -11 6 -24 8 -29 5 -6 -3 -10 -1 -10 4 0
14 16 14 40 1 13 -7 21 -7 25 0 4 6 3 10 -2 9 -21 -4 -34 2 -27 13 4 7 3 8 -4
4 -10 -6 -43 42 -42 61 0 5 -8 9 -17 9 -29 3 -63 16 -63 24 0 5 -6 10 -12 13
-7 2 -5 3 4 2 10 -2 21 2 25 7 4 7 1 8 -7 3 -10 -6 -12 -4 -7 8 3 9 1 19 -5
23 -6 4 -8 3 -4 -4 3 -6 2 -13 -3 -17 -6 -3 -8 3 -6 15 2 11 -2 20 -8 20 -9 0
-9 2 -1 8 6 4 10 15 8 25 -1 9 2 15 6 12 5 -3 7 -14 5 -25 -2 -11 0 -20 6 -20
5 0 7 12 4 27 -2 15 1 31 8 36 7 5 4 6 -10 2 -12 -3 -25 -1 -29 6 -4 7 -3 9 4
5 6 -3 14 -1 18 6 4 7 3 10 -1 5 -5 -4 -17 0 -27 10 -10 9 -18 12 -18 7 0 -5
-7 2 -16 14 -12 18 -19 20 -29 12 -11 -9 -12 -7 -8 11 4 13 2 20 -3 16 -6 -3
-16 4 -24 16 -12 20 -12 21 3 9 12 -10 17 -10 23 -1 4 7 3 9 -4 5 -5 -3 -12 0
-15 6 -3 10 -8 9 -22 -2 -17 -14 -18 -13 -12 2 7 19 -8 34 -18 18 -3 -5 -11
-10 -17 -10 -6 0 -5 6 3 16 11 13 10 15 -3 12 -9 -1 -17 1 -16 6 0 5 -6 12
-12 16 -8 5 -7 9 3 13 12 4 15 0 12 -15 -3 -11 -1 -17 3 -14 4 4 7 11 7 14 0
4 3 12 7 18 5 7 -2 10 -20 9 -36 -2 -53 5 -45 18 4 6 0 8 -10 4 -17 -7 -50 29
-41 45 3 4 0 8 -5 8 -6 0 -11 7 -11 15 0 8 -5 15 -11 15 -5 0 -8 4 -5 8 3 5
-1 9 -10 9 -10 0 -12 -7 -8 -21 4 -15 3 -17 -4 -7 -5 7 -12 9 -14 5 -3 -5 -3
-3 -2 4 2 6 -1 12 -7 12 -6 0 -8 4 -4 9 3 5 1 13 -5 16 -6 4 -9 1 -8 -7 2 -7
-5 -12 -14 -12 -10 1 -15 -3 -12 -8 4 -6 1 -8 -7 -6 -8 3 -13 11 -11 17 1 7
-2 10 -7 6 -6 -3 -8 -12 -5 -19 4 -9 -2 -13 -20 -11 -14 2 -26 -1 -26 -7 0 -6
7 -8 15 -5 8 4 17 1 21 -5 5 -7 2 -8 -6 -3 -10 6 -12 4 -6 -10 6 -16 4 -16
-11 -4 -12 10 -15 10 -9 1 4 -7 2 -20 -5 -28 -10 -12 -10 -15 1 -12 7 2 15 -3
18 -11 2 -8 0 -11 -6 -7 -19 11 -21 -22 -2 -44 19 -21 17 -50 -2 -50 -6 0 -6
6 1 14 9 11 9 16 -1 22 -7 4 -10 3 -5 -1 4 -5 -1 -17 -10 -27 -10 -11 -13 -18
-8 -17 6 2 21 -1 34 -5 l23 -8 -28 -20 c-25 -17 -26 -19 -6 -15 12 3 22 1 22
-4 0 -5 -4 -9 -10 -9 -5 0 -7 -8 -4 -17 5 -15 3 -15 -10 1 -9 11 -16 15 -16 9
0 -7 5 -15 10 -18 6 -3 10 -11 10 -16 0 -6 -5 -7 -11 -3 -8 4 -8 1 0 -14 7
-14 17 -19 29 -16 14 5 14 4 2 -4 -8 -6 -17 -9 -21 -6 -4 2 -11 -1 -15 -7 -4
-8 -3 -9 4 -5 16 10 15 -7 0 -23 -11 -11 -10 -12 1 -6 10 6 12 2 6 -14 -4 -13
-2 -21 5 -21 6 0 9 4 6 8 -3 5 1 9 9 9 10 0 12 -4 5 -12 -5 -6 -8 -22 -5 -35
2 -12 1 -19 -3 -16 -4 4 -7 12 -7 17 0 17 -18 14 -21 -4 -1 -9 2 -14 8 -11 6
4 8 -1 3 -15 -4 -13 -2 -21 5 -21 6 0 9 4 6 8 -3 5 1 9 9 9 11 0 12 -4 4 -13
-6 -7 -8 -17 -6 -22 3 -4 1 -14 -4 -22 -8 -13 -9 -13 -7 0 2 9 -1 15 -7 15 -5
0 -8 -4 -7 -10 10 -27 10 -45 1 -45 -5 0 -4 -6 3 -14 7 -8 16 -12 20 -9 5 2 8
-1 8 -6 0 -15 -27 -14 -33 2 -4 9 -6 9 -6 -1 -1 -7 6 -15 14 -18 8 -4 15 -10
15 -15 0 -4 -8 -5 -17 -2 -15 6 -16 5 -3 -9 8 -9 18 -14 23 -11 4 2 7 -1 7 -6
0 -6 -7 -11 -15 -11 -8 0 -15 5 -15 12 0 6 -3 8 -6 5 -12 -11 17 -36 34 -30
14 4 14 3 3 -5 -8 -6 -21 -7 -30 -4 -14 5 -14 4 -1 -10 8 -9 18 -14 23 -11 4
2 7 -1 7 -6 0 -15 -27 -14 -33 2 -4 9 -6 9 -6 -1 -1 -7 6 -15 14 -18 8 -4 15
-10 15 -15 0 -4 -8 -5 -17 -2 -15 6 -16 5 -3 -9 8 -9 18 -14 23 -11 4 2 7 -1
7 -6 0 -6 -7 -11 -15 -11 -8 0 -15 5 -15 12 0 6 -2 9 -5 6 -3 -3 -3 -13 1 -22
4 -11 13 -15 28 -11 18 5 17 4 -4 -9 -14 -9 -21 -15 -16 -16 5 0 2 -8 -5 -17
-12 -14 -12 -15 0 -9 10 7 12 3 6 -13 -4 -13 -2 -21 5 -21 6 0 9 4 6 8 -3 5 1
9 9 9 10 0 12 -4 5 -12 -5 -6 -8 -22 -5 -35 2 -12 1 -19 -3 -16 -4 4 -7 12 -7
17 0 15 -19 10 -21 -6 -1 -8 2 -12 8 -9 6 4 8 -1 3 -15 -4 -13 -2 -21 5 -21 6
0 9 4 6 8 -3 5 1 9 9 9 11 0 12 -4 4 -13 -7 -9 -7 -20 1 -36 l11 -23 -19 24
c-14 18 -21 21 -27 11 -5 -9 1 -20 19 -33 25 -18 26 -20 9 -32 -13 -10 -20
-10 -26 -2 -5 7 -6 4 -2 -8 4 -11 8 -25 8 -32 0 -7 4 -10 9 -7 17 11 7 -9 -14
-27 -13 -11 -17 -18 -9 -17 7 2 16 -3 19 -11 3 -9 0 -11 -8 -6 -9 6 -11 4 -5
-4 5 -9 10 -10 18 -2 6 6 16 11 21 11 6 0 -2 -10 -19 -21 -25 -18 -27 -20 -7
-16 12 3 22 1 22 -4 0 -5 -4 -9 -10 -9 -5 0 -7 -8 -4 -17 5 -15 3 -15 -10 1
-9 11 -16 15 -16 9 0 -7 5 -15 10 -18 6 -3 10 -11 10 -16 0 -6 -5 -7 -11 -3
-8 4 -8 1 0 -14 7 -14 17 -19 29 -16 14 5 14 4 2 -4 -8 -6 -17 -9 -21 -6 -4 2
-11 -1 -15 -7 -4 -7 -3 -9 3 -6 14 9 12 -55 -2 -66 -6 -5 -2 -7 9 -5 11 2 21
9 24 17 3 9 0 11 -8 6 -9 -6 -11 -4 -5 4 10 18 27 -2 19 -22 -3 -9 -10 -17
-15 -17 -5 0 -9 -4 -9 -10 0 -5 8 -7 18 -4 9 4 4 -4 -13 -16 -26 -19 -27 -21
-7 -17 12 3 22 1 22 -4 0 -5 -4 -9 -10 -9 -5 0 -7 -8 -4 -17 5 -16 4 -16 -10
1 -14 18 -15 18 -13 -2 0 -11 5 -18 11 -15 5 4 7 -1 3 -11 -4 -10 -7 -20 -7
-22 0 -3 -5 -2 -10 1 -16 10 -11 -1 7 -16 11 -10 14 -10 9 -1 -4 6 -2 12 3 12
17 0 13 -18 -6 -30 -14 -9 -14 -10 -2 -7 20 6 40 -25 28 -44 -12 -19 -11 -29
2 -29 5 0 7 4 4 10 -3 6 1 10 10 10 10 0 13 -5 9 -12 -4 -6 -3 -8 4 -4 6 3 15
-2 21 -11 9 -16 10 -16 8 4 0 12 -5 19 -11 16 -5 -3 -6 -1 -2 5 4 6 13 9 20 6
8 -3 17 -1 21 5 3 6 11 11 17 11 5 0 0 -9 -13 -20 -13 -10 -19 -19 -13 -20 5
0 16 6 23 13 11 10 13 9 8 -5 -3 -10 -1 -20 5 -24 6 -4 8 -3 4 4 -3 6 -2 13 4
17 6 4 7 12 4 18 -4 7 -3 8 2 4 5 -5 10 -13 10 -18 1 -5 2 -12 3 -15 0 -4 8
-1 16 6 8 7 15 10 15 6 0 -4 13 0 29 8 16 9 32 12 35 8 4 -3 11 -1 15 7 6 10
10 9 14 -4 4 -9 3 -13 -3 -10 -5 3 -14 -5 -20 -17 -9 -19 -9 -21 2 -8 16 19
36 19 48 0 7 -12 9 -10 7 7 0 12 -5 19 -11 16 -5 -3 -6 -1 -2 5 4 6 13 9 20 6
8 -3 17 -1 21 5 3 6 11 11 17 11 5 0 0 -9 -13 -20 -13 -10 -19 -19 -14 -20 6
0 17 6 24 13 11 10 13 9 8 -5 -3 -10 -2 -20 4 -23 5 -4 8 -1 7 7 -2 7 4 12 14
10 9 -1 19 2 23 8 3 5 15 10 26 10 11 0 18 -4 15 -9 -9 -13 19 -21 35 -9 12 8
11 9 -1 5 -10 -3 -16 2 -17 14 -1 10 3 19 8 19 6 0 8 -4 5 -9 -3 -5 3 -11 14
-14 15 -4 18 -10 13 -24 -6 -17 -6 -17 10 -1 19 18 23 33 7 23 -16 -10 -12 1
6 15 8 8 14 9 13 4 -4 -21 2 -34 16 -34 8 0 15 5 15 11 0 5 -4 7 -10 4 -6 -4
-7 1 -3 11 5 14 8 13 19 -7 12 -21 19 -19 15 4 -1 5 3 5 9 2 6 -4 9 -13 7 -19
-4 -9 3 -11 21 -7 19 3 22 6 9 9 -20 4 -22 17 -5 28 6 4 8 3 5 -3 -4 -6 2 -13
13 -16 15 -4 18 -10 13 -24 -6 -17 -6 -17 10 -1 19 18 23 33 7 23 -16 -10 -12
1 6 15 8 8 14 9 13 4 -4 -21 2 -34 16 -34 8 0 15 5 15 11 0 5 -4 7 -10 4 -6
-4 -7 1 -3 11 5 14 8 13 19 -7 12 -21 19 -19 15 4 -1 5 3 5 9 2 6 -4 9 -13 6
-20 -3 -8 2 -11 15 -8 10 3 19 10 19 15 0 5 -4 6 -10 3 -5 -3 -10 -1 -10 5 0
7 7 9 17 6 9 -4 20 -2 23 4 5 8 9 7 13 -4 4 -9 1 -15 -5 -13 -7 1 -13 -7 -15
-18 -3 -18 -2 -18 5 -2 10 23 15 25 34 10 12 -10 15 -10 15 2 0 8 -5 11 -10 8
-6 -3 -7 -1 -3 5 4 6 13 9 20 6 8 -3 17 -1 21 5 3 6 11 11 17 11 5 0 0 -9 -13
-20 -13 -10 -19 -19 -14 -20 6 0 16 5 23 12 14 14 16 -3 2 -20 -5 -7 -2 -5 7
3 15 13 19 13 37 -3 17 -14 18 -14 8 -1 -10 14 -10 18 2 22 9 4 20 -1 26 -11
10 -15 11 -15 6 0 -2 9 1 19 9 22 10 3 12 0 8 -12 -6 -15 -5 -16 12 -2 10 8
16 10 12 3 -4 -6 -2 -15 4 -19 7 -4 9 -3 6 3 -4 6 2 18 12 27 15 13 18 14 18
1 0 -8 -4 -12 -9 -9 -14 9 -9 -7 9 -24 16 -16 16 -16 10 1 -6 15 -3 17 13 12
12 -4 20 -2 20 5 0 6 -4 9 -9 5 -5 -3 -12 -1 -16 4 -3 6 4 8 17 6 12 -3 25 0
29 6 4 7 9 5 12 -6 4 -9 3 -13 -2 -10 -15 9 -25 -15 -12 -28 9 -9 11 -8 6 5
-7 17 9 20 31 6 6 -4 11 -1 11 7 0 8 -5 11 -10 8 -6 -3 -7 -1 -3 5 4 6 13 9
20 6 8 -3 17 -1 21 5 3 6 11 11 17 11 5 0 0 -9 -13 -20 -13 -10 -19 -19 -14
-20 6 0 17 6 24 12 11 11 13 10 8 -5 -5 -13 -3 -16 6 -10 20 12 37 12 37 0 0
-7 5 -5 10 3 5 8 10 11 10 7 0 -4 10 -3 21 4 12 6 34 12 49 13 21 2 26 -2 22
-14 -4 -12 -3 -13 9 -4 8 6 25 10 39 10 19 -1 24 -6 22 -20 -3 -17 -2 -18 12
-3 18 17 21 32 6 22 -16 -10 -12 1 6 15 8 8 14 9 13 4 -4 -21 2 -34 16 -34 8
0 15 5 15 11 0 5 -4 7 -10 4 -6 -4 -7 1 -3 11 5 14 8 13 19 -7 12 -21 19 -19
15 4 -1 5 3 5 9 2 6 -4 9 -13 7 -19 -4 -9 3 -11 21 -7 19 3 22 6 10 9 -21 4
-23 17 -6 28 6 4 8 3 5 -3 -4 -6 2 -13 13 -16 15 -4 18 -10 13 -24 -6 -17 -6
-17 10 -1 19 18 23 33 7 23 -16 -10 -12 1 6 15 8 8 14 9 13 4 -4 -21 2 -34 16
-34 8 0 15 5 15 11 0 5 -4 7 -10 4 -6 -4 -7 1 -3 11 5 14 8 13 19 -7 12 -21
19 -19 15 4 -1 5 3 5 9 2 6 -4 9 -12 7 -19 -3 -6 3 -12 13 -12 10 0 16 4 14 8
-3 4 0 8 6 8 6 0 8 4 5 10 -4 6 1 7 11 3 10 -4 15 -2 11 4 -3 5 0 10 9 10 9 0
12 -7 8 -19 -3 -10 -1 -18 5 -18 6 0 10 3 10 8 -4 24 2 62 9 58 5 -3 9 1 9 9
0 8 -4 12 -9 9 -4 -3 -8 2 -8 11 0 9 4 14 8 11 5 -3 9 2 9 10 0 8 -6 13 -12
10 -6 -2 -12 2 -12 10 0 7 4 11 9 8 4 -3 5 3 1 12 -5 13 -2 16 8 12 10 -4 15
1 15 12 0 10 -3 17 -7 15 -3 -3 -17 8 -30 23 -13 14 -16 20 -6 13 15 -12 17
-11 17 8 0 15 -4 20 -12 14 -7 -4 -5 6 6 21 10 16 14 26 8 22 -5 -3 -16 2 -23
12 -13 15 -12 16 4 3 15 -12 17 -11 17 8 0 15 -4 20 -12 14 -7 -4 -5 5 4 19
13 19 15 29 6 34 -7 5 -8 2 -3 -7 5 -8 4 -10 0 -6 -18 16 -13 35 9 30 17 -4
18 -3 5 6 -14 9 -16 23 -10 75 1 4 7 6 14 3 7 -3 13 3 13 13 0 10 -3 17 -7 15
-3 -3 -17 8 -30 23 -13 14 -16 20 -6 13 15 -12 17 -11 17 8 0 15 -4 20 -12 14
-7 -4 -5 6 6 21 10 16 14 26 8 22 -5 -3 -16 2 -23 12 -13 15 -12 16 4 3 15
-12 17 -11 17 8 0 15 -4 20 -12 14 -7 -4 -5 5 4 19 13 19 15 29 6 34 -7 5 -8
2 -3 -7 5 -8 4 -10 0 -6 -18 16 -13 35 9 30 17 -4 18 -3 5 6 -14 9 -16 23 -10
75 1 4 7 6 14 3 7 -3 13 3 13 13 0 10 -3 17 -7 15 -3 -3 -17 8 -30 23 -13 14
-16 20 -6 13 15 -12 17 -11 17 8 0 15 -4 20 -12 14 -7 -4 -5 6 6 21 10 16 14
26 8 22 -5 -3 -16 2 -23 12 -13 15 -12 16 4 3 15 -12 17 -11 17 8 0 15 -4 20
-12 14 -7 -4 -5 5 4 19 13 19 15 29 6 34 -7 5 -8 2 -3 -7 5 -8 4 -10 0 -6 -18
16 -13 35 9 30 17 -4 18 -3 5 6 -14 9 -16 23 -10 75 1 4 7 6 14 3 7 -3 13 3
13 13 0 10 -3 17 -7 15 -3 -3 -17 8 -30 23 -13 14 -16 20 -6 13 15 -12 17 -11
17 8 0 15 -4 20 -12 14 -7 -4 -5 6 6 21 10 16 14 26 8 22 -5 -3 -16 2 -23 12
-13 15 -12 16 4 3 15 -12 17 -11 17 8 0 15 -4 20 -12 14 -7 -4 -5 5 4 19 13
19 15 29 6 34 -7 5 -8 2 -3 -7 5 -8 4 -10 0 -6 -18 16 -13 35 9 30 17 -4 18
-3 5 6 -14 9 -16 23 -10 75 1 4 7 6 14 3 7 -3 13 3 13 13 0 10 -3 17 -7 15 -3
-3 -17 8 -30 23 -13 14 -16 20 -6 13 15 -12 17 -11 17 8 0 15 -4 20 -12 14 -7
-4 -5 6 6 21 10 16 14 26 8 22 -5 -3 -16 2 -23 12 -13 15 -12 16 4 3 15 -12
17 -11 17 8 0 15 -4 20 -12 14 -7 -4 -5 5 4 19 13 19 15 29 6 34 -7 5 -8 2 -3
-7 5 -8 4 -10 0 -6 -5 4 -10 14 -11 22 -2 11 2 12 16 5 10 -5 21 -15 23 -22 4
-10 6 -10 6 1 1 7 -11 22 -25 33 -18 15 -22 24 -15 31 13 13 15 30 3 23 -18
-11 -7 30 12 47 12 10 15 16 9 12 -8 -4 -13 0 -13 10 0 9 5 13 10 10 6 -3 10
-1 10 4 0 6 -4 11 -9 11 -13 0 -21 27 -15 45 4 8 11 12 18 8 6 -4 5 1 -2 10
-8 9 -10 22 -6 29 4 7 -3 4 -15 -6 -22 -20 -22 -20 -15 0 6 16 5 17 -7 7 -19
-18 -34 -16 -19 2 18 21 9 27 -10 7z m-1676 -307 c-4 -8 -11 -12 -16 -9 -6 4
-5 10 3 15 19 12 19 11 13 -6z m1370 -33 c3 -5 -1 -9 -9 -9 -8 0 -12 4 -9 9 3
4 7 8 9 8 2 0 6 -4 9 -8z m-82 -69 c-6 -3 -9 -10 -6 -15 4 -7 2 -8 -5 -4 -9 6
-9 11 0 22 6 8 15 12 18 8 3 -4 0 -9 -7 -11z m-1372 -13 c0 -5 -2 -10 -4 -10
-3 0 -8 5 -11 10 -3 6 -1 10 4 10 6 0 11 -4 11 -10z m1818 -64 c-7 -8 -15 -12
-17 -11 -5 6 10 25 20 25 5 0 4 -6 -3 -14z m-1413 -87 c-4 -5 -1 -9 4 -9 6 0
11 -5 11 -10 0 -6 -8 -5 -20 2 -11 7 -16 14 -10 16 6 2 7 9 4 14 -4 7 -2 8 5
4 6 -4 9 -12 6 -17z m855 7 c0 -2 -7 -7 -16 -10 -8 -3 -12 -2 -9 4 6 10 25 14
25 6z m-815 -26 c3 -5 1 -10 -4 -10 -6 0 -11 5 -11 10 0 6 2 10 4 10 3 0 8 -4
11 -10z m-435 -20 c0 -5 -5 -10 -11 -10 -5 0 -7 5 -4 10 3 6 8 10 11 10 2 0 4
-4 4 -10z m-3 -65 c0 -8 -4 -12 -9 -9 -5 3 -6 10 -3 15 9 13 12 11 12 -6z
m1083 -38 c0 -4 -6 -2 -14 5 -8 7 -12 17 -9 22 5 8 23 -12 23 -27z m-580 -61
c0 -2 -8 -10 -17 -17 -16 -13 -17 -12 -4 4 13 16 21 21 21 13z m50 -12 c0 -2
-9 -8 -20 -14 -15 -8 -18 -8 -14 3 4 11 34 21 34 11z m1258 -18 c-7 -8 -15
-12 -17 -11 -5 6 10 25 20 25 5 0 4 -6 -3 -14z m-1248 -26 c6 -11 7 -20 2 -20
-6 0 -12 9 -15 20 -3 11 -3 20 -1 20 2 0 8 -9 14 -20z m-550 -41 c0 -4 -6 -9
-13 -12 -8 -3 -14 0 -14 7 0 7 6 13 14 13 7 0 13 -4 13 -8z m900 1 c0 -5 -5
-10 -11 -10 -5 0 -7 5 -4 10 3 6 8 10 11 10 2 0 4 -4 4 -10z m898 -254 c-7 -8
-15 -12 -17 -11 -5 6 10 25 20 25 5 0 4 -6 -3 -14z m-1811 -31 c0 -8 -4 -12
-9 -9 -5 3 -6 10 -3 15 9 13 12 11 12 -6z m3 -235 c0 -5 -5 -10 -11 -10 -5 0
-7 5 -4 10 3 6 8 10 11 10 2 0 4 -4 4 -10z m1808 -54 c-7 -8 -15 -12 -17 -11
-5 6 10 25 20 25 5 0 4 -6 -3 -14z m-1808 -8 c0 -4 -4 -8 -9 -8 -6 0 -12 4
-15 8 -3 5 1 9 9 9 8 0 15 -4 15 -9z m0 -118 c0 -5 -5 -10 -11 -10 -5 0 -7 5
-4 10 3 6 8 10 11 10 2 0 4 -4 4 -10z m0 -60 c0 -5 -5 -10 -11 -10 -5 0 -7 5
-4 10 3 6 8 10 11 10 2 0 4 -4 4 -10z m1808 -134 c-7 -8 -15 -12 -17 -11 -5 6
10 25 20 25 5 0 4 -6 -3 -14z m-1803 -46 c3 -5 1 -10 -4 -10 -6 0 -11 5 -11
10 0 6 2 10 4 10 3 0 8 -4 11 -10z m147 -122 c-8 -8 -9 -4 -5 13 4 13 8 18 11
10 2 -7 -1 -18 -6 -23z m1154 20 c5 4 5 3 1 -2 -12 -15 -34 -15 -34 0 0 9 4
11 12 4 7 -5 16 -6 21 -2z m-921 -16 c-3 -3 -11 0 -18 7 -9 10 -8 11 6 5 10
-3 15 -9 12 -12z m565 12 c0 -8 -19 -13 -24 -6 -3 5 1 9 9 9 8 0 15 -2 15 -3z"/>
<path d="M2186 2235 c-11 -8 -15 -15 -9 -15 6 0 16 7 23 15 16 19 11 19 -14 0z"/>
<path d="M2310 2241 c0 -6 4 -12 8 -15 5 -3 9 1 9 9 0 8 -4 15 -9 15 -4 0 -8
-4 -8 -9z"/>
<path d="M2306 2141 c-3 -5 1 -14 9 -21 10 -9 15 -9 15 -1 0 6 -6 11 -12 11
-9 0 -8 4 2 10 9 6 10 10 3 10 -6 0 -14 -4 -17 -9z"/>
<path d="M2306 2091 c-3 -5 0 -11 7 -14 8 -3 14 1 14 9 0 16 -13 19 -21 5z"/>
<path d="M1980 2040 c-9 -6 -10 -10 -3 -10 6 0 15 5 18 10 8 12 4 12 -15 0z"/>
<path d="M655 2021 c-3 -5 2 -17 11 -25 22 -22 31 -20 11 2 -10 10 -14 22 -10
25 3 4 4 7 0 7 -3 0 -8 -4 -12 -9z"/>
<path d="M1916 2003 c-6 -14 -5 -15 5 -6 7 7 10 15 7 18 -3 3 -9 -2 -12 -12z"/>
<path d="M2310 2001 c0 -6 4 -13 10 -16 6 -3 7 1 4 9 -7 18 -14 21 -14 7z"/>
<path d="M683 1949 c6 -10 16 -15 21 -12 6 4 5 8 -2 11 -7 2 -10 7 -8 11 3 4
-1 8 -8 8 -11 0 -12 -4 -3 -18z"/>
<path d="M2326 1957 c3 -10 9 -15 12 -12 3 3 0 11 -7 18 -10 9 -11 8 -5 -6z"/>
<path d="M731 1924 c0 -11 3 -14 6 -6 3 7 2 16 -1 19 -3 4 -6 -2 -5 -13z"/>
<path d="M2310 1921 c0 -6 4 -13 10 -16 6 -3 7 1 4 9 -7 18 -14 21 -14 7z"/>
<path d="M466 1788 c3 -5 10 -6 15 -3 13 9 11 12 -6 12 -8 0 -12 -4 -9 -9z"/>
<path d="M2335 1719 c-4 -6 -5 -12 -2 -15 2 -3 7 2 10 11 7 17 1 20 -8 4z"/>
<path d="M1620 1705 c0 -10 29 -24 34 -17 3 6 -3 12 -14 15 -11 3 -20 4 -20 2z"/>
<path d="M2310 1681 c0 -6 4 -13 10 -16 6 -3 7 1 4 9 -7 18 -14 21 -14 7z"/>
<path d="M1614 1662 c3 -5 0 -12 -6 -15 -7 -2 -10 -7 -7 -11 3 -4 12 0 18 8 9
11 9 16 0 22 -7 4 -9 3 -5 -4z"/>
<path d="M2326 1637 c3 -10 9 -15 12 -12 3 3 0 11 -7 18 -10 9 -11 8 -5 -6z"/>
<path d="M2310 1601 c0 -6 4 -13 10 -16 6 -3 7 1 4 9 -7 18 -14 21 -14 7z"/>
<path d="M1020 1560 c-9 -6 -10 -10 -3 -10 6 0 15 5 18 10 8 12 4 12 -15 0z"/>
<path d="M1436 1523 c-6 -14 -5 -15 5 -6 7 7 10 15 7 18 -3 3 -9 -2 -12 -12z"/>
<path d="M2335 1399 c-4 -6 -5 -12 -2 -15 2 -3 7 2 10 11 7 17 1 20 -8 4z"/>
<path d="M2310 1361 c0 -6 4 -13 10 -16 6 -3 7 1 4 9 -7 18 -14 21 -14 7z"/>
<path d="M2326 1317 c3 -10 9 -15 12 -12 3 3 0 11 -7 18 -10 9 -11 8 -5 -6z"/>
<path d="M2310 1281 c0 -6 4 -13 10 -16 6 -3 7 1 4 9 -7 18 -14 21 -14 7z"/>
<path d="M2335 1079 c-4 -6 -5 -12 -2 -15 2 -3 7 2 10 11 7 17 1 20 -8 4z"/>
<path d="M2310 1041 c0 -6 4 -13 10 -16 6 -3 7 1 4 9 -7 18 -14 21 -14 7z"/>
<path d="M2326 997 c3 -10 9 -15 12 -12 3 3 0 11 -7 18 -10 9 -11 8 -5 -6z"/>
<path d="M460 966 c0 -2 7 -6 15 -10 8 -3 15 -1 15 4 0 6 -7 10 -15 10 -8 0
-15 -2 -15 -4z"/>
<path d="M2310 961 c0 -6 4 -13 10 -16 6 -3 7 1 4 9 -7 18 -14 21 -14 7z"/>
<path d="M2335 759 c-4 -6 -5 -12 -2 -15 2 -3 7 2 10 11 7 17 1 20 -8 4z"/>
<path d="M2310 721 c0 -6 4 -13 10 -16 6 -3 7 1 4 9 -7 18 -14 21 -14 7z"/>
<path d="M2326 677 c3 -10 9 -15 12 -12 3 3 0 11 -7 18 -10 9 -11 8 -5 -6z"/>
<path d="M2310 641 c0 -6 4 -13 10 -16 6 -3 7 1 4 9 -7 18 -14 21 -14 7z"/>
<path d="M460 601 c0 -6 4 -13 10 -16 6 -3 7 1 4 9 -7 18 -14 21 -14 7z"/>
<path d="M484 422 c3 -5 0 -13 -6 -15 -9 -4 -10 -6 -1 -6 17 -1 25 16 12 25
-7 4 -9 3 -5 -4z"/>
<path d="M706 374 c-11 -8 -16 -14 -10 -14 13 0 39 18 34 24 -3 2 -14 -2 -24
-10z"/>
<path d="M1826 374 c-11 -7 -18 -16 -15 -18 2 -2 13 2 23 10 11 7 18 16 15 18
-2 2 -13 -2 -23 -10z"/>
<path d="M905 371 c-3 -5 -2 -12 3 -15 5 -3 9 1 9 9 0 17 -3 19 -12 6z"/>
<path d="M1860 371 c0 -6 4 -13 10 -16 6 -3 7 1 4 9 -7 18 -14 21 -14 7z"/>
<path d="M1906 368 c3 -4 11 -5 19 -1 21 7 19 12 -4 10 -11 0 -18 -5 -15 -9z"/>
</g>
</svg>
